<mxfile host="app.diagrams.net" modified="2023-05-08T17:03:42.648Z" agent="Mozilla/5.0 (Windows NT 10.0; Win64; x64) AppleWebKit/537.36 (KHTML, like Gecko) Chrome/111.0.0.0 Safari/537.36 OPR/97.0.0.0" etag="zkyddYPIIltZRuj4QSFd" version="21.2.9" type="github">
  <diagram name="PÃ¡gina-1" id="i5PzdfSYSbj_oxuwF7Ju">
    <mxGraphModel dx="1286" dy="717" grid="1" gridSize="10" guides="1" tooltips="1" connect="1" arrows="1" fold="1" page="1" pageScale="1" pageWidth="827" pageHeight="1169" math="0" shadow="0">
      <root>
        <mxCell id="0" />
        <mxCell id="1" parent="0" />
        <mxCell id="uGcob1qa6ud-Uy3nm5xJ-1" value="Musician" style="rounded=0;whiteSpace=wrap;html=1;" vertex="1" parent="1">
          <mxGeometry x="230" y="240" width="80" height="40" as="geometry" />
        </mxCell>
        <mxCell id="uGcob1qa6ud-Uy3nm5xJ-2" value="&lt;u&gt;ID&lt;/u&gt;" style="ellipse;whiteSpace=wrap;html=1;aspect=fixed;" vertex="1" parent="1">
          <mxGeometry x="200" y="130" width="30" height="30" as="geometry" />
        </mxCell>
        <mxCell id="uGcob1qa6ud-Uy3nm5xJ-4" value="" style="endArrow=none;html=1;rounded=0;entryX=0.5;entryY=1;entryDx=0;entryDy=0;exitX=0.25;exitY=0;exitDx=0;exitDy=0;" edge="1" parent="1" source="uGcob1qa6ud-Uy3nm5xJ-1" target="uGcob1qa6ud-Uy3nm5xJ-2">
          <mxGeometry width="50" height="50" relative="1" as="geometry">
            <mxPoint x="490" y="360" as="sourcePoint" />
            <mxPoint x="540" y="310" as="targetPoint" />
          </mxGeometry>
        </mxCell>
        <mxCell id="uGcob1qa6ud-Uy3nm5xJ-5" value="Instrumento" style="rounded=0;whiteSpace=wrap;html=1;" vertex="1" parent="1">
          <mxGeometry x="420" y="240" width="90" height="40" as="geometry" />
        </mxCell>
        <mxCell id="uGcob1qa6ud-Uy3nm5xJ-7" value="" style="rhombus;whiteSpace=wrap;html=1;" vertex="1" parent="1">
          <mxGeometry x="350" y="245" width="30" height="30" as="geometry" />
        </mxCell>
        <mxCell id="uGcob1qa6ud-Uy3nm5xJ-8" value="" style="endArrow=none;html=1;rounded=0;entryX=1;entryY=0.5;entryDx=0;entryDy=0;exitX=0;exitY=0.5;exitDx=0;exitDy=0;" edge="1" parent="1" source="uGcob1qa6ud-Uy3nm5xJ-5" target="uGcob1qa6ud-Uy3nm5xJ-7">
          <mxGeometry width="50" height="50" relative="1" as="geometry">
            <mxPoint x="490" y="360" as="sourcePoint" />
            <mxPoint x="540" y="310" as="targetPoint" />
          </mxGeometry>
        </mxCell>
        <mxCell id="uGcob1qa6ud-Uy3nm5xJ-9" value="" style="endArrow=none;html=1;rounded=0;entryX=0;entryY=0.5;entryDx=0;entryDy=0;exitX=1;exitY=0.5;exitDx=0;exitDy=0;" edge="1" parent="1" source="uGcob1qa6ud-Uy3nm5xJ-1" target="uGcob1qa6ud-Uy3nm5xJ-7">
          <mxGeometry width="50" height="50" relative="1" as="geometry">
            <mxPoint x="490" y="360" as="sourcePoint" />
            <mxPoint x="540" y="310" as="targetPoint" />
          </mxGeometry>
        </mxCell>
        <mxCell id="uGcob1qa6ud-Uy3nm5xJ-13" value="Phone Number" style="ellipse;whiteSpace=wrap;html=1;aspect=fixed;" vertex="1" parent="1">
          <mxGeometry x="245" y="110" width="50" height="50" as="geometry" />
        </mxCell>
        <mxCell id="uGcob1qa6ud-Uy3nm5xJ-14" value="Address" style="ellipse;whiteSpace=wrap;html=1;aspect=fixed;" vertex="1" parent="1">
          <mxGeometry x="310" y="110" width="50" height="50" as="geometry" />
        </mxCell>
        <mxCell id="uGcob1qa6ud-Uy3nm5xJ-15" value="" style="endArrow=none;html=1;rounded=0;entryX=0.5;entryY=1;entryDx=0;entryDy=0;exitX=0.5;exitY=0;exitDx=0;exitDy=0;" edge="1" parent="1" source="uGcob1qa6ud-Uy3nm5xJ-1" target="uGcob1qa6ud-Uy3nm5xJ-13">
          <mxGeometry width="50" height="50" relative="1" as="geometry">
            <mxPoint x="490" y="350" as="sourcePoint" />
            <mxPoint x="540" y="300" as="targetPoint" />
          </mxGeometry>
        </mxCell>
        <mxCell id="uGcob1qa6ud-Uy3nm5xJ-16" value="" style="endArrow=none;html=1;rounded=0;entryX=0.5;entryY=1;entryDx=0;entryDy=0;exitX=0.75;exitY=0;exitDx=0;exitDy=0;" edge="1" parent="1" source="uGcob1qa6ud-Uy3nm5xJ-1" target="uGcob1qa6ud-Uy3nm5xJ-14">
          <mxGeometry width="50" height="50" relative="1" as="geometry">
            <mxPoint x="490" y="350" as="sourcePoint" />
            <mxPoint x="540" y="300" as="targetPoint" />
          </mxGeometry>
        </mxCell>
        <mxCell id="uGcob1qa6ud-Uy3nm5xJ-17" value="&lt;u&gt;Name&lt;/u&gt;" style="ellipse;whiteSpace=wrap;html=1;aspect=fixed;" vertex="1" parent="1">
          <mxGeometry x="420" y="160" width="40" height="40" as="geometry" />
        </mxCell>
        <mxCell id="uGcob1qa6ud-Uy3nm5xJ-18" value="" style="endArrow=none;html=1;rounded=0;entryX=0.5;entryY=1;entryDx=0;entryDy=0;exitX=0.25;exitY=0;exitDx=0;exitDy=0;" edge="1" parent="1" source="uGcob1qa6ud-Uy3nm5xJ-5" target="uGcob1qa6ud-Uy3nm5xJ-17">
          <mxGeometry width="50" height="50" relative="1" as="geometry">
            <mxPoint x="490" y="350" as="sourcePoint" />
            <mxPoint x="540" y="300" as="targetPoint" />
          </mxGeometry>
        </mxCell>
        <mxCell id="uGcob1qa6ud-Uy3nm5xJ-19" value="Tonality" style="ellipse;whiteSpace=wrap;html=1;aspect=fixed;" vertex="1" parent="1">
          <mxGeometry x="500" y="130" width="50" height="50" as="geometry" />
        </mxCell>
        <mxCell id="uGcob1qa6ud-Uy3nm5xJ-20" value="" style="endArrow=none;html=1;rounded=0;entryX=0.5;entryY=1;entryDx=0;entryDy=0;exitX=0.75;exitY=0;exitDx=0;exitDy=0;" edge="1" parent="1" source="uGcob1qa6ud-Uy3nm5xJ-5" target="uGcob1qa6ud-Uy3nm5xJ-19">
          <mxGeometry width="50" height="50" relative="1" as="geometry">
            <mxPoint x="490" y="350" as="sourcePoint" />
            <mxPoint x="540" y="300" as="targetPoint" />
          </mxGeometry>
        </mxCell>
        <mxCell id="uGcob1qa6ud-Uy3nm5xJ-24" value="Album" style="rounded=0;whiteSpace=wrap;html=1;" vertex="1" parent="1">
          <mxGeometry x="130" y="400" width="80" height="40" as="geometry" />
        </mxCell>
        <mxCell id="uGcob1qa6ud-Uy3nm5xJ-25" value="&lt;u&gt;ID&lt;/u&gt;" style="ellipse;whiteSpace=wrap;html=1;aspect=fixed;" vertex="1" parent="1">
          <mxGeometry x="90" y="505" width="30" height="30" as="geometry" />
        </mxCell>
        <mxCell id="uGcob1qa6ud-Uy3nm5xJ-26" value="" style="endArrow=none;html=1;rounded=0;entryX=0.5;entryY=0;entryDx=0;entryDy=0;exitX=0.174;exitY=0.985;exitDx=0;exitDy=0;exitPerimeter=0;" edge="1" parent="1" source="uGcob1qa6ud-Uy3nm5xJ-24" target="uGcob1qa6ud-Uy3nm5xJ-25">
          <mxGeometry width="50" height="50" relative="1" as="geometry">
            <mxPoint x="390" y="520" as="sourcePoint" />
            <mxPoint x="440" y="470" as="targetPoint" />
          </mxGeometry>
        </mxCell>
        <mxCell id="uGcob1qa6ud-Uy3nm5xJ-27" value="Title" style="ellipse;whiteSpace=wrap;html=1;aspect=fixed;" vertex="1" parent="1">
          <mxGeometry x="140" y="520" width="30" height="30" as="geometry" />
        </mxCell>
        <mxCell id="uGcob1qa6ud-Uy3nm5xJ-28" value="Date" style="ellipse;whiteSpace=wrap;html=1;aspect=fixed;" vertex="1" parent="1">
          <mxGeometry x="190" y="520" width="30" height="30" as="geometry" />
        </mxCell>
        <mxCell id="uGcob1qa6ud-Uy3nm5xJ-29" value="" style="endArrow=none;html=1;rounded=0;entryX=0.5;entryY=0;entryDx=0;entryDy=0;exitX=0.5;exitY=1;exitDx=0;exitDy=0;" edge="1" parent="1" source="uGcob1qa6ud-Uy3nm5xJ-24" target="uGcob1qa6ud-Uy3nm5xJ-27">
          <mxGeometry width="50" height="50" relative="1" as="geometry">
            <mxPoint x="170" y="440" as="sourcePoint" />
            <mxPoint x="165" y="520" as="targetPoint" />
          </mxGeometry>
        </mxCell>
        <mxCell id="uGcob1qa6ud-Uy3nm5xJ-30" value="" style="endArrow=none;html=1;rounded=0;entryX=0.5;entryY=0;entryDx=0;entryDy=0;exitX=0.75;exitY=1;exitDx=0;exitDy=0;" edge="1" parent="1" source="uGcob1qa6ud-Uy3nm5xJ-24" target="uGcob1qa6ud-Uy3nm5xJ-28">
          <mxGeometry width="50" height="50" relative="1" as="geometry">
            <mxPoint x="260" y="440" as="sourcePoint" />
            <mxPoint x="440" y="460" as="targetPoint" />
          </mxGeometry>
        </mxCell>
        <mxCell id="uGcob1qa6ud-Uy3nm5xJ-33" value="Song" style="rounded=0;whiteSpace=wrap;html=1;" vertex="1" parent="1">
          <mxGeometry x="330" y="400" width="80" height="40" as="geometry" />
        </mxCell>
        <mxCell id="uGcob1qa6ud-Uy3nm5xJ-36" value="&lt;u&gt;Title&lt;/u&gt;" style="ellipse;whiteSpace=wrap;html=1;aspect=fixed;" vertex="1" parent="1">
          <mxGeometry x="340" y="520" width="30" height="30" as="geometry" />
        </mxCell>
        <mxCell id="uGcob1qa6ud-Uy3nm5xJ-37" value="&lt;u&gt;Author&lt;/u&gt;" style="ellipse;whiteSpace=wrap;html=1;aspect=fixed;" vertex="1" parent="1">
          <mxGeometry x="390" y="510" width="50" height="50" as="geometry" />
        </mxCell>
        <mxCell id="uGcob1qa6ud-Uy3nm5xJ-38" value="" style="endArrow=none;html=1;rounded=0;entryX=0.5;entryY=0;entryDx=0;entryDy=0;exitX=0.5;exitY=1;exitDx=0;exitDy=0;" edge="1" parent="1" source="uGcob1qa6ud-Uy3nm5xJ-33" target="uGcob1qa6ud-Uy3nm5xJ-36">
          <mxGeometry width="50" height="50" relative="1" as="geometry">
            <mxPoint x="370" y="440" as="sourcePoint" />
            <mxPoint x="365" y="520" as="targetPoint" />
          </mxGeometry>
        </mxCell>
        <mxCell id="uGcob1qa6ud-Uy3nm5xJ-39" value="" style="endArrow=none;html=1;rounded=0;entryX=0.5;entryY=0;entryDx=0;entryDy=0;exitX=0.75;exitY=1;exitDx=0;exitDy=0;" edge="1" parent="1" source="uGcob1qa6ud-Uy3nm5xJ-33" target="uGcob1qa6ud-Uy3nm5xJ-37">
          <mxGeometry width="50" height="50" relative="1" as="geometry">
            <mxPoint x="460" y="440" as="sourcePoint" />
            <mxPoint x="640" y="460" as="targetPoint" />
          </mxGeometry>
        </mxCell>
        <mxCell id="uGcob1qa6ud-Uy3nm5xJ-40" value="" style="endArrow=none;html=1;rounded=0;entryX=0;entryY=1;entryDx=0;entryDy=0;exitX=1;exitY=0.75;exitDx=0;exitDy=0;" edge="1" parent="1" source="uGcob1qa6ud-Uy3nm5xJ-24" target="uGcob1qa6ud-Uy3nm5xJ-41">
          <mxGeometry width="50" height="50" relative="1" as="geometry">
            <mxPoint x="210" y="430" as="sourcePoint" />
            <mxPoint x="440" y="310" as="targetPoint" />
          </mxGeometry>
        </mxCell>
        <mxCell id="uGcob1qa6ud-Uy3nm5xJ-41" value="" style="rhombus;whiteSpace=wrap;html=1;" vertex="1" parent="1">
          <mxGeometry x="247.5" y="400" width="35" height="40" as="geometry" />
        </mxCell>
        <mxCell id="uGcob1qa6ud-Uy3nm5xJ-45" value="" style="endArrow=none;html=1;rounded=0;entryX=0;entryY=0.5;entryDx=0;entryDy=0;exitX=0;exitY=0.5;exitDx=0;exitDy=0;" edge="1" parent="1" source="uGcob1qa6ud-Uy3nm5xJ-33" target="uGcob1qa6ud-Uy3nm5xJ-49">
          <mxGeometry width="50" height="50" relative="1" as="geometry">
            <mxPoint x="310" y="470" as="sourcePoint" />
            <mxPoint x="283" y="420" as="targetPoint" />
          </mxGeometry>
        </mxCell>
        <mxCell id="uGcob1qa6ud-Uy3nm5xJ-46" value="" style="endArrow=none;html=1;rounded=0;exitX=1;exitY=0.25;exitDx=0;exitDy=0;entryX=0;entryY=0;entryDx=0;entryDy=0;" edge="1" parent="1" source="uGcob1qa6ud-Uy3nm5xJ-24" target="uGcob1qa6ud-Uy3nm5xJ-41">
          <mxGeometry width="50" height="50" relative="1" as="geometry">
            <mxPoint x="390" y="360" as="sourcePoint" />
            <mxPoint x="440" y="310" as="targetPoint" />
          </mxGeometry>
        </mxCell>
        <mxCell id="uGcob1qa6ud-Uy3nm5xJ-48" style="edgeStyle=orthogonalEdgeStyle;rounded=0;orthogonalLoop=1;jettySize=auto;html=1;exitX=1;exitY=0.5;exitDx=0;exitDy=0;entryX=1;entryY=0.75;entryDx=0;entryDy=0;" edge="1" parent="1" source="uGcob1qa6ud-Uy3nm5xJ-24" target="uGcob1qa6ud-Uy3nm5xJ-24">
          <mxGeometry relative="1" as="geometry" />
        </mxCell>
        <mxCell id="uGcob1qa6ud-Uy3nm5xJ-49" value="" style="triangle;whiteSpace=wrap;html=1;rotation=-180;fillColor=#000000;" vertex="1" parent="1">
          <mxGeometry x="282.5" y="400" width="20" height="40" as="geometry" />
        </mxCell>
        <mxCell id="uGcob1qa6ud-Uy3nm5xJ-51" value="" style="rhombus;whiteSpace=wrap;html=1;rotation=-90;" vertex="1" parent="1">
          <mxGeometry x="157.5" y="312.67" width="35" height="37.33" as="geometry" />
        </mxCell>
        <mxCell id="uGcob1qa6ud-Uy3nm5xJ-54" value="" style="endArrow=none;html=1;rounded=0;exitX=1;exitY=0.5;exitDx=0;exitDy=0;entryX=0.5;entryY=1;entryDx=0;entryDy=0;" edge="1" parent="1" source="uGcob1qa6ud-Uy3nm5xJ-51" target="uGcob1qa6ud-Uy3nm5xJ-1">
          <mxGeometry width="50" height="50" relative="1" as="geometry">
            <mxPoint x="380" y="360" as="sourcePoint" />
            <mxPoint x="430" y="310" as="targetPoint" />
          </mxGeometry>
        </mxCell>
        <mxCell id="uGcob1qa6ud-Uy3nm5xJ-55" value="" style="rhombus;whiteSpace=wrap;html=1;rotation=90;" vertex="1" parent="1">
          <mxGeometry x="360" y="330" width="37.07" height="37.33" as="geometry" />
        </mxCell>
        <mxCell id="uGcob1qa6ud-Uy3nm5xJ-56" value="" style="endArrow=none;html=1;rounded=0;entryX=0;entryY=0.5;entryDx=0;entryDy=0;exitX=0.5;exitY=1;exitDx=0;exitDy=0;" edge="1" parent="1" target="uGcob1qa6ud-Uy3nm5xJ-55" source="uGcob1qa6ud-Uy3nm5xJ-1">
          <mxGeometry width="50" height="50" relative="1" as="geometry">
            <mxPoint x="280" y="315" as="sourcePoint" />
            <mxPoint x="510" y="365" as="targetPoint" />
          </mxGeometry>
        </mxCell>
        <mxCell id="uGcob1qa6ud-Uy3nm5xJ-60" value="" style="endArrow=none;html=1;rounded=0;exitX=1;exitY=1;exitDx=0;exitDy=0;entryX=0.5;entryY=0;entryDx=0;entryDy=0;" edge="1" parent="1" source="uGcob1qa6ud-Uy3nm5xJ-55" target="uGcob1qa6ud-Uy3nm5xJ-33">
          <mxGeometry width="50" height="50" relative="1" as="geometry">
            <mxPoint x="380" y="360" as="sourcePoint" />
            <mxPoint x="430" y="310" as="targetPoint" />
          </mxGeometry>
        </mxCell>
        <mxCell id="uGcob1qa6ud-Uy3nm5xJ-68" value="Produces v" style="rounded=0;whiteSpace=wrap;html=1;fillColor=none;strokeColor=none;" vertex="1" parent="1">
          <mxGeometry x="50" y="300" width="120" height="60" as="geometry" />
        </mxCell>
        <mxCell id="uGcob1qa6ud-Uy3nm5xJ-69" value="participates v" style="rounded=0;whiteSpace=wrap;html=1;fillColor=none;strokeColor=none;" vertex="1" parent="1">
          <mxGeometry x="380" y="318.66" width="120" height="60" as="geometry" />
        </mxCell>
        <mxCell id="uGcob1qa6ud-Uy3nm5xJ-70" value="" style="endArrow=none;html=1;rounded=0;entryX=0;entryY=0.25;entryDx=0;entryDy=0;exitX=0.384;exitY=0.01;exitDx=0;exitDy=0;exitPerimeter=0;" edge="1" parent="1" target="uGcob1qa6ud-Uy3nm5xJ-72" source="uGcob1qa6ud-Uy3nm5xJ-24">
          <mxGeometry width="50" height="50" relative="1" as="geometry">
            <mxPoint x="120" y="370" as="sourcePoint" />
            <mxPoint x="73" y="360" as="targetPoint" />
          </mxGeometry>
        </mxCell>
        <mxCell id="uGcob1qa6ud-Uy3nm5xJ-71" value="" style="endArrow=none;html=1;rounded=0;exitX=0;exitY=0.75;exitDx=0;exitDy=0;entryX=0.75;entryY=0;entryDx=0;entryDy=0;" edge="1" parent="1" source="uGcob1qa6ud-Uy3nm5xJ-72" target="uGcob1qa6ud-Uy3nm5xJ-24">
          <mxGeometry width="50" height="50" relative="1" as="geometry">
            <mxPoint x="180" y="300" as="sourcePoint" />
            <mxPoint x="120" y="350" as="targetPoint" />
          </mxGeometry>
        </mxCell>
        <mxCell id="uGcob1qa6ud-Uy3nm5xJ-72" value="" style="triangle;whiteSpace=wrap;html=1;rotation=-90;fillColor=#000000;" vertex="1" parent="1">
          <mxGeometry x="165" y="338.66" width="20" height="40" as="geometry" />
        </mxCell>
        <mxCell id="uGcob1qa6ud-Uy3nm5xJ-73" value="" style="endArrow=none;html=1;rounded=0;entryX=0.75;entryY=0;entryDx=0;entryDy=0;exitX=1;exitY=0;exitDx=0;exitDy=0;" edge="1" parent="1" source="uGcob1qa6ud-Uy3nm5xJ-55" target="uGcob1qa6ud-Uy3nm5xJ-33">
          <mxGeometry width="50" height="50" relative="1" as="geometry">
            <mxPoint x="380" y="350" as="sourcePoint" />
            <mxPoint x="430" y="300" as="targetPoint" />
          </mxGeometry>
        </mxCell>
      </root>
    </mxGraphModel>
  </diagram>
</mxfile>
